<?xml version="1.0" standalone="no"?><!DOCTYPE svg PUBLIC "-//W3C//DTD SVG 1.1//EN" "http://www.w3.org/Graphics/SVG/1.1/DTD/svg11.dtd"><svg t="1776310511823" class="icon" viewBox="0 0 1024 1024" version="1.1" xmlns="http://www.w3.org/2000/svg" p-id="1364" xmlns:xlink="http://www.w3.org/1999/xlink" width="200" height="200"><path d="M371.78368 427.7504v0.98816h69.80608v-0.98816c0-50.71872 35.24096-84.97152 87.58784-84.97152 49.0752 0 86.28224 32.60416 86.28224 76.07296 0 34.90816-15.47776 59.9296-79.04256 126.1312l-160.7168 167.29088v53.35552h320.09216v-66.19648H478.44352v-5.6064l105.70752-107.02336c79.69792-80.68608 104.05888-121.84576 104.05888-172.24192 0-78.37696-66.52928-135.67488-156.75392-135.67488-93.53216 0-159.72864 61.25056-159.72864 148.84864l0.05632 0.01536zM115.75808 546.4576h59.93472c62.24384 0 100.78208 30.62272 100.78208 79.69792 0 46.76096-40.832 80.0256-98.80064 80.0256-57.6256 0-97.152-29.312-101.75488-75.41248H5.12c4.28544 84.97152 72.77568 140.6208 172.5696 140.6208 99.12832 0 174.208-60.5952 174.208-141.28128 0-63.55968-39.50592-108.01664-104.39168-115.59424v-5.6064c52.37248-11.84768 84.97152-54.02112 84.97152-109.99296 0-71.45472-67.84-125.7984-156.09856-125.7984-95.17056 0-157.08672 53.02272-162.03264 138.97216h70.13888c3.95776-46.76608 37.87776-75.41248 89.5744-75.41248 51.69152 0 85.61152 28.9792 85.61152 73.10336 0 44.78976-35.24096 75.74528-86.272 75.74528H115.77344v60.91776l-0.01536 0.01536z" fill="#707070" p-id="1365"></path><path d="M933.91872 649.19552c0 7.69536 2.56 13.6704 7.68 17.94048 4.70528 4.26496 10.25024 6.40512 16.67072 6.40512 6.39488 0 12.38016-2.14016 17.08032-6.40512 4.69504-4.27008 7.25504-10.24512 7.25504-17.94048 0-8.1152-2.56-14.09536-7.25504-18.36032a26.81344 26.81344 0 0 0-17.08032-5.98528 25.66144 25.66144 0 0 0-16.67072 5.98528c-4.69504 4.26496-7.25504 10.24512-7.68 18.36032z m-27.34592 73.472c0-16.23552 6.84032-29.04576 20.08576-38.44608-5.13024-4.27008-8.97024-9.40032-11.96544-15.38048-3.42016-5.55008-5.12-11.95008-5.12-19.22048 0-14.09024 5.12-26.05056 14.5152-35.01568 8.97536-9.40544 20.5056-13.66528 34.18112-14.1056 14.09024 0 26.04544 4.70016 35.0208 14.1056 8.96512 9.39008 13.66528 20.92544 14.09024 35.01568 0 7.2704-1.70496 13.6704-4.70016 19.22048-2.99008 5.56032-7.26016 10.68032-12.38016 15.38048 13.24032 8.97536 20.07552 21.7856 20.07552 38.44608 0 15.37536-5.13024 27.76064-14.95552 36.73088-10.25024 9.3952-22.21056 14.09536-36.73088 14.52032-14.52544 0-26.48576-5.12512-36.30592-14.52032-10.6752-9.40032-15.81056-21.79072-15.81056-36.73088z m24.35072-0.43008c0 7.68512 2.9952 14.09024 8.54528 19.2256 5.12512 5.12512 11.53024 7.68 19.22048 7.68 7.68512 0 14.09536-2.55488 19.22048-7.68 5.12512-5.13536 8.1152-11.54048 8.1152-19.2256 0-8.12032-2.99008-14.52032-8.1152-19.22048-5.12512-4.69504-11.53536-7.2704-19.22048-7.68512-7.69024 0-13.67552 2.55488-19.22048 7.68512-5.55008 4.70016-8.54528 11.10016-8.54528 19.22048zM822.78912 679.99744h66.09408v27.70944h-66.09408zM952.22784 446.88896l-0.47104-68.9664a12.34944 12.34944 0 1 1 24.69376-0.16896l0.67072 98.7648a12.3136 12.3136 0 0 1-12.1856 12.43136h-0.0768l-98.75968 0.67584a12.3392 12.3392 0 1 1-0.16896-24.68352l68.9664-0.47616-84.25472-83.10784a12.34944 12.34944 0 0 1 17.34144-17.58208l84.24448 83.11296z" fill="#707070" p-id="1366"></path></svg>