<?xml version="1.0" standalone="no"?><!DOCTYPE svg PUBLIC "-//W3C//DTD SVG 1.1//EN" "http://www.w3.org/Graphics/SVG/1.1/DTD/svg11.dtd"><svg t="1694137699604" class="icon" viewBox="0 0 1024 1024" version="1.1" xmlns="http://www.w3.org/2000/svg" p-id="7730" xmlns:xlink="http://www.w3.org/1999/xlink" width="200" height="200"><path d="M914.858667 853.333333H109.184A67.541333 67.541333 0 0 1 42.666667 788.864V235.136A67.541333 67.541333 0 0 1 109.184 170.666667h805.674667A67.498667 67.498667 0 0 1 981.333333 235.136v553.728A67.498667 67.498667 0 0 1 914.858667 853.333333zM343.850667 640.938667v151.722666h571.008v-151.722666H343.850667z m-234.666667-212.352v364.074666H277.333333v-364.074666z m234.666667 147.882666h571.008V424.789333H343.850667v151.68z m-234.666667-341.333333v128.768h805.674667V234.965333z m250.282667 94.805333a30.336 30.336 0 1 1 31.317333-30.336 33.152 33.152 0 0 1-31.317333 30.165334z m-97.749334 0a30.378667 30.378667 0 0 1-31.317333-30.336 31.317333 31.317333 0 0 1 62.592 0c3.925333 15.189333-11.733333 30.165333-31.274667 30.165334z m-93.866666 0a30.336 30.336 0 1 1 31.274666-30.336 30.336 30.336 0 0 1-31.274666 30.165334z" p-id="7731" fill="#303133"></path></svg>